<svg xmlns="http://www.w3.org/2000/svg" viewBox="0 0 511.62 466.29"><title>Asset 1</title><g id="Layer_2" data-name="Layer 2"><g id="Layer_1-2" data-name="Layer 1"><path fill="#ffffff" d="M483.23,328.63h-4.7A288,288,0,0,0,420.71,187c-5.3-6.89-11-13.62-17-20a12.17,12.17,0,1,0-17.79,16.61c5.44,5.83,10.66,12,15.51,18.26a265.52,265.52,0,0,1,15.2,21.94l-12.39,8a4.69,4.69,0,0,1-2.72.06l-33.16-21.48a27.86,27.86,0,0,0-29.08,0l-33.06,21.42a4.69,4.69,0,0,1-2.72.06l-33.16-21.48a27.88,27.88,0,0,0-29.08,0l-33.06,21.43a4.77,4.77,0,0,1-2.72.05l-33.16-21.48a27.88,27.88,0,0,0-29.08,0l-33.06,21.43a4.77,4.77,0,0,1-2.72.05L95,223.75a265.52,265.52,0,0,1,15.2-21.94c33.24-43.11,79.72-74.7,130.88-88.94a55.13,55.13,0,0,1,29.5,0,244.53,244.53,0,0,1,64.72,28.79,12.17,12.17,0,0,0,13-20.6c-4.88-3.07-9.85-6-14.87-8.69a83,83,0,1,0-155.15,0A279.89,279.89,0,0,0,90.91,187,288.14,288.14,0,0,0,33.09,328.63H28.4A28.43,28.43,0,0,0,0,357V437.9a28.43,28.43,0,0,0,28.4,28.39H483.23a28.43,28.43,0,0,0,28.39-28.39V357A28.43,28.43,0,0,0,483.23,328.63ZM255.81,24.34a58.6,58.6,0,0,1,55.6,77.29c-4.18-1.82-8.39-3.51-12.64-5.1V86a12.17,12.17,0,1,0-24.34,0v2.78c-2.14-.52-4.31-1-6.49-1.29V81.13a12.17,12.17,0,1,0-24.34,0V87.5c-2.18.34-4.34.78-6.49,1.3V86a12.17,12.17,0,0,0-24.34,0V96.53q-6.35,2.39-12.56,5.08a58.61,58.61,0,0,1,55.6-77.27ZM61.69,305.62a12.15,12.15,0,0,0,20.25-9.08V281.19a12.17,12.17,0,0,0-9.41-11.85Q77.22,257,83.12,245.06l11.12,7.2a27.86,27.86,0,0,0,29.08,0l33.06-21.42a4.86,4.86,0,0,1,2.72-.06l33.15,21.48a27.88,27.88,0,0,0,29.09,0l33.06-21.42a4.86,4.86,0,0,1,2.72-.06l33.16,21.48a27.88,27.88,0,0,0,29.09,0l33.05-21.42a4.86,4.86,0,0,1,2.72-.06l33.16,21.48a27.83,27.83,0,0,0,29.08,0l11.12-7.2a262.51,262.51,0,0,1,10.59,24.28,12.17,12.17,0,0,0-9.41,11.85v15.34a12.15,12.15,0,0,0,20.25,9.08q2.54,11.37,4.07,23H57.62Q59.17,317,61.69,305.62ZM487.28,437.9a4.1,4.1,0,0,1-4,4.05H28.4a4.11,4.11,0,0,1-4.06-4.05V357A4.12,4.12,0,0,1,28.4,353H483.23a4.11,4.11,0,0,1,4,4.06Z"/></g></g></svg>