<svg xmlns="http://www.w3.org/2000/svg" viewBox="0 0 511.67 320.9"><title>Asset 1</title><g id="Layer_2" data-name="Layer 2"><g id="Layer_1-2" data-name="Layer 1"><path fill="#ffffff" d="M483.27,5.67h-34a28.23,28.23,0,0,0-17-5.67H330.62a28.2,28.2,0,0,0-16.95,5.67H28.4A28.43,28.43,0,0,0,0,34.07V135.72a28.43,28.43,0,0,0,28.4,28.4H96.84a12.17,12.17,0,0,0,0-24.34H28.4a4.12,4.12,0,0,1-4.06-4.06V114H172.83a12.18,12.18,0,0,0,0-24.35H24.34V73.42H90.07a12.18,12.18,0,0,0,0-24.35H24.34v-15A4.12,4.12,0,0,1,28.4,30H302.22V139.78H165a12.17,12.17,0,1,0,0,24.34H302.22V258.5A28.39,28.39,0,0,0,318.28,284v24.7a12.17,12.17,0,1,0,24.34,0V286.9h9.65v21.83a12.18,12.18,0,0,0,24.35,0V286.9h9.65v21.83a12.18,12.18,0,0,0,24.35,0V286.9h9.65v21.83a12.17,12.17,0,0,0,24.34,0V284a28.39,28.39,0,0,0,16.06-25.53V164.12h22.6a28.43,28.43,0,0,0,28.4-28.4V34.07A28.43,28.43,0,0,0,483.27,5.67Zm4.06,130.05a4.12,4.12,0,0,1-4.06,4.06h-22.6V118a12.17,12.17,0,0,0-24.34,0V258.5a4.11,4.11,0,0,1-4.06,4.05H330.62a4.11,4.11,0,0,1-4.06-4.05V28.4a4.12,4.12,0,0,1,4.06-4.06h16.95V216.65a12.17,12.17,0,0,0,24.34,0V24.34h16.23V96.56a12.17,12.17,0,0,0,24.34,0V24.34h19.79a4.12,4.12,0,0,1,4.06,4.06v28a12.17,12.17,0,0,0,24.34,0V30h22.6a4.12,4.12,0,0,1,4.06,4.06Z"/></g></g></svg>