<svg xmlns="http://www.w3.org/2000/svg" viewBox="0 0 444 512"><title>Asset 1</title><g id="Layer_2" data-name="Layer 2"><g id="Layer_1-2" data-name="Layer 1"><path d="M387.43,258.18a7.5,7.5,0,1,0-14.55,3.64,144.35,144.35,0,0,1,3.86,23.68c-9.69-9.3-24.48-14.89-40.09-14.89a61.17,61.17,0,0,0-32.12,8.73c-2.16-38.59-11.46-74.39-26.59-101.82a124.29,124.29,0,0,0-20.7-28.17c4.49,1.18,8.92,2.55,13.28,4.08a22.79,22.79,0,0,0,31,14.56,165.17,165.17,0,0,1,25.38,18.73,153.74,153.74,0,0,1,35,45.63,7.5,7.5,0,0,0,13.42-6.7A168.72,168.72,0,0,0,337,175.56a180.38,180.38,0,0,0-24.13-18.24,22.81,22.81,0,1,0-41.28-19.38,191.47,191.47,0,0,0-52.22-9.29v-5.39a7.5,7.5,0,1,0-15,0v5.39c-44.14,1.69-85.67,18.19-117.64,46.91C52.74,206.07,33.16,247,31.57,290.93a12.89,12.89,0,0,0,12.87,13.35,13,13,0,0,0,10.22-5c6.46-8.41,18.85-13.63,32.33-13.63,13.14,0,25,4.81,31.71,12.87a12.9,12.9,0,0,0,19.8,0c6.71-8.06,18.56-12.87,31.71-12.87s25,4.81,31.71,12.87a12.86,12.86,0,0,0,2.4,2.21V399h-9.55a10.51,10.51,0,0,0-10.5,10.5v17.59a10.53,10.53,0,0,0,7.21,10v.9a7.5,7.5,0,0,0,15,0v-.37h10.67V466a31,31,0,0,1-62,0V454h10.67v12a20.33,20.33,0,0,0,40.66,0,7.5,7.5,0,0,0-15,0,5.33,5.33,0,0,1-10.66,0V449.62A10.6,10.6,0,0,0,170.24,439H150.73a10.59,10.59,0,0,0-10.58,10.58V466a46,46,0,0,0,92,0V437.1a10.52,10.52,0,0,0,7.22-10V409.54a10.51,10.51,0,0,0-10.5-10.5h-9.55V300.69a12.86,12.86,0,0,0,2.4-2.21c6.71-8.06,18.56-12.87,31.71-12.87s25,4.81,31.71,12.86a12.89,12.89,0,0,0,19.8,0c6.71-8.06,18.56-12.87,31.71-12.87,13.48,0,25.86,5.22,32.32,13.63a12.89,12.89,0,0,0,23.1-8.31A158.45,158.45,0,0,0,387.43,258.18Zm-95-118.89a7.8,7.8,0,1,1-7.81,7.8A7.81,7.81,0,0,1,292.43,139.29Zm-173.32,140A61.2,61.2,0,0,0,87,270.61c-15.61,0-30.4,5.59-40.09,14.89,2.92-37.52,20.47-72.41,49.81-98.78a168.17,168.17,0,0,1,69.68-37.37,124.26,124.26,0,0,0-20.69,28.17C130.57,205,121.26,240.75,119.11,279.34ZM224.37,414v8.59h-25.1V414Zm29.06-143.43c-12.79,0-24.83,3.63-34.11,10V203a7.5,7.5,0,0,0-15,0v77.64c-9.29-6.39-21.33-10-34.11-10-13.78,0-26.7,4.22-36.22,11.57,1.81-37.14,10.52-71.45,24.85-97.42,12.78-23.17,28.71-37.28,45.48-40.53V168a7.5,7.5,0,0,0,15,0V144.23c16.77,3.25,32.7,17.36,45.48,40.53,14.33,26,23,60.28,24.85,97.42C280.12,274.83,267.21,270.61,253.43,270.61Z"/><path d="M421.19,201.06A22.8,22.8,0,1,0,444,223.86,22.83,22.83,0,0,0,421.19,201.06Zm0,30.6a7.8,7.8,0,1,1,7.81-7.8A7.82,7.82,0,0,1,421.19,231.66Z"/><path d="M172.32,218.5a22.81,22.81,0,1,0,22.82,22.8A22.84,22.84,0,0,0,172.32,218.5Zm0,30.61a7.81,7.81,0,1,1,7.82-7.81A7.82,7.82,0,0,1,172.32,249.11Z"/><path d="M40.44,0A22.81,22.81,0,1,0,63.26,22.8,22.84,22.84,0,0,0,40.44,0Zm0,30.61a7.81,7.81,0,1,1,7.82-7.81A7.82,7.82,0,0,1,40.44,30.61Z"/><path d="M22.82,151.9a22.81,22.81,0,1,0,22.81,22.8A22.84,22.84,0,0,0,22.82,151.9Zm0,30.61a7.81,7.81,0,1,1,7.81-7.8A7.82,7.82,0,0,1,22.82,182.51Z"/><path d="M371.69,70.86A22.81,22.81,0,1,0,394.5,93.67,22.83,22.83,0,0,0,371.69,70.86Zm0,30.61a7.81,7.81,0,1,1,7.81-7.8A7.82,7.82,0,0,1,371.69,101.47Z"/><path d="M121.38,68.73a22.8,22.8,0,1,0,22.82,22.8A22.83,22.83,0,0,0,121.38,68.73Zm0,30.61a7.81,7.81,0,1,1,7.82-7.81A7.81,7.81,0,0,1,121.38,99.34Z"/><path d="M261.19,1A22.8,22.8,0,1,0,284,23.83,22.83,22.83,0,0,0,261.19,1Zm0,30.6a7.8,7.8,0,1,1,7.81-7.8A7.81,7.81,0,0,1,261.19,31.63Z"/></g></g></svg>