<svg xmlns="http://www.w3.org/2000/svg" viewBox="0 0 512 193.18"><title>Asset 1</title><g id="Layer_2" data-name="Layer 2"><g id="Layer_1-2" data-name="Layer 1"><path fill="#ffffff" d="M132.14,21l0,7.86V21h-3.54c-27.61,0-62-.1-79.75,21.9-10.66,13.19-13.35,32.47-8,57.29,15.57,72.06,49.2,72.06,81.78,72.06h3.87c38.53,0,71.75-1,91.66-64.4,9.76-31.08,14-54.81,3.17-69.61C208.66,21,181.48,21,132.14,21Zm71,82.13c-16.77,53.41-40,53.37-78.53,53.39h-2c-15.4,0-28.69,0-39.46-7C71,141.66,62.16,124.43,56.2,96.83c-4.31-19.94-2.67-34.77,4.85-44.08,12.4-15.34,40.25-16.06,63.8-16.06h7.29c41.28,0,68.56,0,76.49,10.82C214.43,55.4,212.73,72.54,203.13,103.1Z"/><path fill="#ffffff" d="M494.63,83.57c.3-4.9,1.67-11.28,6.53-13.83A20.43,20.43,0,0,0,512,51.5V29.38a18.06,18.06,0,0,0-13.85-17.6C490,9.81,446.2,0,379.89,0,333,0,311.6,4,294.4,7.16,282,9.46,272.18,11.28,256,11.28s-26-1.82-38.4-4.12C200.4,4,179,0,132.11,0,65.8,0,22,9.82,13.85,11.78A18.06,18.06,0,0,0,0,29.38V51.5A20.43,20.43,0,0,0,10.84,69.74c4.86,2.55,6.23,8.93,6.53,13.82a140.15,140.15,0,0,0,3,21,.58.58,0,0,1,0,.14L9.4,110A14.25,14.25,0,0,0,7.7,134.7l9.69,6.46a19,19,0,0,0,15.51,2.56c7.71,16.49,17.65,28.44,30.26,36.6A77.18,77.18,0,0,0,94,191.64c10,1.54,19.88,1.54,28.63,1.54h4.07c38.59,0,86.62,0,111.46-79.08,2.86-9.1,5-16.91,6.64-23.9,3.8-16.53,5.82-16.54,11.22-16.54s7.42,0,11.22,16.55c1.61,7,3.78,14.79,6.64,23.89,24.84,79.08,72.87,79.08,111.46,79.08h4.07c17.64,0,39.58,0,59.45-12.86,12.61-8.16,22.55-20.11,30.26-36.6a19,19,0,0,0,15.5-2.56l9.69-6.46A14.25,14.25,0,0,0,502.6,110l-11-5.3,0-.14A139,139,0,0,0,494.63,83.57ZM26.11,128.07l-7.53-5,5.69-2.76q1.21,4.2,2.54,8.13A3.27,3.27,0,0,1,26.11,128.07Zm467.31-5-7.54,5a3.2,3.2,0,0,1-.69.35q1.32-3.93,2.54-8.12ZM478.93,82.64a122.7,122.7,0,0,1-2.64,18.62c-7.29,33.75-18.73,54.68-36,65.86-16,10.34-33.73,10.34-50.9,10.34h-4.07c-36.91,0-75.08,0-96.46-68.08-2.73-8.7-4.8-16.13-6.32-22.7C279.6,73.87,276,57.94,256,57.94h0c-19.94,0-23.6,15.93-26.53,28.73-1.52,6.58-3.59,14-6.32,22.71-21.38,68.08-59.55,68.08-96.46,68.08h-4.07c-17.18,0-34.94,0-50.9-10.34C54.44,155.94,43,135,35.71,101.26a122.59,122.59,0,0,1-2.64-18.64c-1-16.2-8.66-23.52-14.93-26.8a4.84,4.84,0,0,1-2.41-4.32V29.38a2.37,2.37,0,0,1,1.82-2.31c7.81-1.9,50-11.34,114.56-11.34,45.42,0,65.19,3.66,82.63,6.9C227.42,25,238.37,27,256,27s28.58-2,41.26-4.38c17.44-3.24,37.21-6.9,82.63-6.9,64.52,0,106.75,9.44,114.56,11.34a2.38,2.38,0,0,1,1.83,2.31V51.5a4.85,4.85,0,0,1-2.42,4.32C487.59,59.1,479.91,66.42,478.93,82.64Z"/><path fill="#ffffff" d="M383.43,21h-3.54v7.86l0-7.86c-49.34,0-76.52,0-89.17,17.23-10.86,14.8-6.59,38.53,3.17,69.61,19.92,63.41,53.13,64.41,91.66,64.41h3.92c32.53,0,66.16,0,81.73-72.06,5.36-24.82,2.67-44.09-8-57.29C445.39,20.86,411.06,20.93,383.43,21ZM455.8,96.83c-6,27.6-14.76,44.83-26.9,52.69-10.77,7-24.06,7-39.51,7h-2c-38.49,0-61.76,0-78.54-53.39-9.59-30.56-11.29-47.7-5.5-55.6,7.94-10.81,35.21-10.81,76.5-10.81h3.6c24.25,0,54.43-.09,67.49,16.06C458.48,62.06,460.11,76.89,455.8,96.83Z"/></g></g></svg>