<svg xmlns="http://www.w3.org/2000/svg" viewBox="0 0 512 500.99"><title>Asset 1</title><g id="Layer_2" data-name="Layer 2"><g id="Layer_1-2" data-name="Layer 1"><path fill="#ffffff" d="M476.52,237.31a7.5,7.5,0,0,0-14.35,4.38c16.6,54.32,27.56,115.22,32.69,181.42H451.18c-6.34-77.12-20.2-136.21-33.61-178V135.58c9.72,16.86,21.74,40.95,33.51,73a7.5,7.5,0,1,0,14.08-5.17c-18.52-50.48-37.85-82.11-48.39-97.26A60.79,60.79,0,0,0,397.58,71,46.84,46.84,0,0,0,357.44,0H154.56a46.84,46.84,0,0,0-40.14,71,60.79,60.79,0,0,0-19.19,35.16C84.69,121.34,65.36,153,46.84,203.45,20.16,276.16,4.4,361.46,0,457A13,13,0,0,0,13,470.6H60.54a13,13,0,0,0,13-12.4c3-62.85,11.23-114.84,20.87-156.4V457.47a12.74,12.74,0,0,0,8.38,12v14.06a17.52,17.52,0,0,0,17.5,17.5H391.69a17.52,17.52,0,0,0,17.5-17.5V469.43a12.74,12.74,0,0,0,8.38-12V301.8c9.64,41.56,17.82,93.55,20.87,156.4a13,13,0,0,0,13,12.4H499A13,13,0,0,0,512,457C508.27,376.06,496.34,302.16,476.52,237.31ZM58.67,455.6H15.09q.42-8.81,1-17.49H59.7Q59.13,446.72,58.67,455.6ZM94.43,245.14C81,286.91,67.16,346,60.82,423.11H17.13C23.33,343.05,38,271,60.92,208.62c11.77-32.09,23.79-56.18,33.51-73ZM154.56,15H357.44A31.86,31.86,0,0,1,375.7,73a37.29,37.29,0,0,0,5.43-11.72c3.75-14.8-.35-24.19-4.45-29.46-5.61-7.21-14.95-11.34-25.62-11.34A48.87,48.87,0,0,0,318,34H194.09a49.65,49.65,0,0,0-18.8-11.21c-10.09-3.27-20.67-3-29,.7-5.27,2.34-21.95,12-15.4,37.81A37.24,37.24,0,0,0,136.29,73a31.85,31.85,0,0,1,18.27-58ZM224,98.93l11.54,15.78c-38.6-14.17-85-37.11-90.12-57.14-1.8-7.11-2.06-16.42,6.95-20.42,10.19-4.52,27.2-.19,36.3,13.47l.19.27,13.19,18a7.5,7.5,0,0,0,12.11-8.85L206,49h28.14v21.2a7.5,7.5,0,0,0,7.5,7.5h28.7a7.5,7.5,0,0,0,7.5-7.5V49H306l-50,68.34-19.9-27.22A7.5,7.5,0,0,0,224,98.93Zm25.17-36.28V49h13.7v13.7Zm74-11.76.14-.2c6.32-9.26,17.22-15.24,27.77-15.24,6,0,11,2,13.78,5.56,3.71,4.76,3,11.63,1.75,16.56-5.08,20-51.51,43-90.12,57.14ZM109.43,116.05a45.69,45.69,0,0,1,14.7-33.58,46.62,46.62,0,0,0,30.43,11.26h3.68q15.27,10.63,39,21.44c14,6.37,27.58,11.58,37.89,15.25V325.5a7.5,7.5,0,0,0,15,0v-190c1.87.6,3,.94,3.2,1a7.44,7.44,0,0,0,2.18.33h1a7.44,7.44,0,0,0,2.18-.33c.21-.06,1.34-.4,3.21-1v319.7H250.14V362.5a7.5,7.5,0,0,0-15,0v92.72H109.43ZM394.19,483.49a2.53,2.53,0,0,1-2.5,2.5H120.31a2.53,2.53,0,0,1-2.5-2.5V470.22H394.19Zm8.38-28.28H276.86V130.42c10.31-3.68,23.89-8.88,37.88-15.25q23.79-10.85,39-21.44h3.69a46.68,46.68,0,0,0,30.43-11.26,45.69,45.69,0,0,1,14.7,33.58Zm50.76.39q-.45-8.89-1-17.49h43.62q.56,8.68,1,17.49Z"/><path fill="#ffffff" d="M156.15,311H132.61a12.5,12.5,0,0,0-12.5,12.5v78a12.51,12.51,0,0,0,12.5,12.5h23.54a12.52,12.52,0,0,0,12.5-12.5v-78A12.52,12.52,0,0,0,156.15,311Zm-2.5,88H135.11V326h18.54Z"/><path fill="#ffffff" d="M379.39,311H355.85a12.51,12.51,0,0,0-12.5,12.5v78a12.52,12.52,0,0,0,12.5,12.5h23.54a12.51,12.51,0,0,0,12.5-12.5v-78A12.51,12.51,0,0,0,379.39,311Zm-2.5,88H358.35V326h18.54v73Z"/><path fill="#ffffff" d="M302,160a19.5,19.5,0,1,0,19.5,19.5A19.53,19.53,0,0,0,302,160Zm0,24a4.5,4.5,0,1,1,4.5-4.5A4.51,4.51,0,0,1,302,184Z"/><path fill="#ffffff" d="M302,234a19.5,19.5,0,1,0,19.5,19.5A19.53,19.53,0,0,0,302,234Zm0,24a4.5,4.5,0,1,1,4.5-4.5A4.51,4.51,0,0,1,302,258Z"/><path fill="#ffffff" d="M302,308a19.5,19.5,0,1,0,19.5,19.5A19.53,19.53,0,0,0,302,308Zm0,24a4.5,4.5,0,1,1,4.5-4.5A4.51,4.51,0,0,1,302,332Z"/><path fill="#ffffff" d="M302,382a19.5,19.5,0,1,0,19.5,19.5A19.53,19.53,0,0,0,302,382Zm0,24a4.5,4.5,0,1,1,4.5-4.5A4.51,4.51,0,0,1,302,406Z"/></g></g></svg>