<?xml version="1.0" encoding="iso-8859-1"?>
<!-- Generator: Adobe Illustrator 19.0.0, SVG Export Plug-In . SVG Version: 6.00 Build 0)  -->
<svg version="1.1" id="Capa_1" xmlns="http://www.w3.org/2000/svg" xmlns:xlink="http://www.w3.org/1999/xlink" x="0px" y="0px"
	 viewBox="0 0 512 512" style="enable-background:new 0 0 512 512;" xml:space="preserve">
<g>
	<g>
		<path d="M400.174,202.524h-2.894c-3.871-31.942-16.086-61.962-35.63-87.313c-3.272-4.245-6.796-8.394-10.471-12.331
			c-2.825-3.027-7.571-3.192-10.601-0.364c-3.027,2.827-3.19,7.573-0.364,10.601c3.354,3.593,6.569,7.379,9.556,11.252
			c3.361,4.36,6.485,8.872,9.367,13.518l-7.634,4.947c-0.381,0.182-1.355,0.182-1.674,0.036l-20.435-13.238
			c-5.193-3.364-12.731-3.364-17.923,0.001l-20.373,13.201c-0.381,0.182-1.354,0.182-1.676,0.037l-20.436-13.237
			c-5.193-3.366-12.731-3.364-17.923-0.001l-20.375,13.202c-0.381,0.182-1.357,0.182-1.675,0.036l-20.434-13.237
			c-5.193-3.366-12.732-3.364-17.923-0.001l-20.374,13.202c-0.383,0.181-1.354,0.182-1.675,0.036l-7.694-4.984
			c2.882-4.646,6.006-9.157,9.367-13.516c20.485-26.568,49.129-46.035,80.654-54.814c5.916-1.648,12.262-1.648,18.178,0
			c13.929,3.879,27.35,9.849,39.888,17.743c3.506,2.208,8.138,1.155,10.343-2.351c2.207-3.505,1.154-8.136-2.351-10.343
			c-3.006-1.893-6.067-3.666-9.164-5.356c2.145-5.632,3.343-11.727,3.343-18.103C311.174,22.945,288.229,0,260.026,0
			s-51.147,22.945-51.147,51.147c0,6.372,1.197,12.461,3.338,18.09c-20.689,11.289-39.164,26.976-53.813,45.974
			c-19.545,25.351-31.761,55.37-35.632,87.313h-2.894c-9.649,0-17.5,7.851-17.5,17.5v49.836c0,9.649,7.851,17.5,17.5,17.5h280.295
			c9.649,0,17.5-7.851,17.5-17.5v-49.836C417.674,210.375,409.823,202.524,400.174,202.524z M260.026,15
			c19.931,0,36.148,16.216,36.148,36.147c0,4.014-0.671,7.871-1.887,11.481c-2.572-1.116-5.169-2.161-7.786-3.141V53
			c0-4.142-3.357-7.5-7.5-7.5s-7.5,3.358-7.5,7.5v1.71c-1.323-0.319-2.656-0.588-4-0.795V50c0-4.142-3.357-7.5-7.5-7.5
			c-4.143,0-7.5,3.358-7.5,7.5v3.924c-1.344,0.208-2.677,0.478-4,0.799V53c0-4.142-3.357-7.5-7.5-7.5s-7.5,3.358-7.5,7.5v6.489
			c-2.605,0.977-5.184,2.022-7.738,3.131c-1.213-3.607-1.884-7.461-1.884-11.473C223.878,31.215,240.094,15,260.026,15z
			 M140.396,188.341c1.325,1.181,3.066,1.904,4.981,1.904c4.143,0,7.5-3.358,7.5-7.5v-9.457c0-3.557-2.479-6.53-5.803-7.3
			c1.929-5.094,4.103-10.089,6.531-14.963l6.848,4.436c5.191,3.365,12.731,3.365,17.923,0l20.374-13.201
			c0.382-0.182,1.355-0.182,1.674-0.037l20.434,13.237c5.191,3.364,12.73,3.364,17.924,0.001l20.375-13.202
			c0.381-0.182,1.354-0.182,1.675-0.036l20.436,13.237c5.191,3.365,12.73,3.364,17.924,0l20.373-13.201
			c0.381-0.182,1.356-0.182,1.675-0.037l20.433,13.236c2.597,1.684,5.78,2.525,8.964,2.525c3.182,0,6.364-0.841,8.96-2.523
			l6.849-4.437c2.429,4.874,4.603,9.869,6.531,14.963c-3.323,0.77-5.803,3.743-5.803,7.3v9.457c0,4.142,3.357,7.5,7.5,7.5
			c1.915,0,3.656-0.723,4.981-1.904c1.039,4.671,1.877,9.402,2.51,14.184H137.888C138.521,197.743,139.357,193.012,140.396,188.341z
			 M402.674,269.86c0,1.355-1.145,2.5-2.5,2.5H119.879c-1.355,0-2.5-1.145-2.5-2.5v-49.836c0-1.355,1.145-2.5,2.5-2.5h280.295
			c1.355,0,2.5,1.145,2.5,2.5V269.86z"/>
	</g>
</g>
<g>
	<g>
		<path d="M200.084,165.788c-4.143,0-7.5,3.358-7.5,7.5v9.457c0,4.142,3.357,7.5,7.5,7.5s7.5-3.358,7.5-7.5v-9.457
			C207.584,169.145,204.227,165.788,200.084,165.788z"/>
	</g>
</g>
<g>
	<g>
		<path d="M261.773,165.788c-4.143,0-7.5,3.358-7.5,7.5v9.457c0,4.142,3.357,7.5,7.5,7.5s7.5-3.358,7.5-7.5v-9.457
			C269.273,169.145,265.915,165.788,261.773,165.788z"/>
	</g>
</g>
<g>
	<g>
		<path d="M323.461,165.788c-4.143,0-7.5,3.358-7.5,7.5v9.457c0,4.142,3.357,7.5,7.5,7.5s7.5-3.358,7.5-7.5v-9.457
			C330.961,169.145,327.604,165.788,323.461,165.788z"/>
	</g>
</g>
<g>
	<g>
		<path d="M392.123,317.754h-20.982c-2.919-2.183-6.527-3.493-10.445-3.493h-62.639c-3.918,0-7.526,1.31-10.445,3.493H111.828
			c-9.649,0-17.5,7.851-17.5,17.5v62.639c0,9.649,7.851,17.5,17.5,17.5h42.173c4.143,0,7.5-3.358,7.5-7.5c0-4.142-3.357-7.5-7.5-7.5
			h-42.173c-1.355,0-2.5-1.145-2.5-2.5V384.5h91.5c4.143,0,7.5-3.358,7.5-7.5c0-4.142-3.357-7.5-7.5-7.5h-91.5v-10h40.5
			c4.143,0,7.5-3.358,7.5-7.5c0-4.142-3.357-7.5-7.5-7.5h-40.5v-9.246c0-1.355,1.145-2.5,2.5-2.5h168.73v67.639h-84.557
			c-4.143,0-7.5,3.358-7.5,7.5c0,4.142,3.357,7.5,7.5,7.5h84.557v58.155c0,6.921,4.049,12.899,9.894,15.736V504.5
			c0,4.142,3.357,7.5,7.5,7.5s7.5-3.358,7.5-7.5v-13.451h5.95V504.5c0,4.142,3.357,7.5,7.5,7.5s7.5-3.358,7.5-7.5v-13.451h5.951
			V504.5c0,4.142,3.357,7.5,7.5,7.5s7.5-3.358,7.5-7.5v-13.451h5.95V504.5c0,4.142,3.357,7.5,7.5,7.5s7.5-3.358,7.5-7.5v-15.215
			c5.845-2.837,9.894-8.815,9.894-15.736v-58.155h13.927c9.649,0,17.5-7.851,17.5-17.5v-62.639
			C409.623,325.605,401.773,317.754,392.123,317.754z M394.623,397.894c0,1.355-1.145,2.5-2.5,2.5h-13.927V387
			c0-4.142-3.357-7.5-7.5-7.5s-7.5,3.358-7.5,7.5v86.549c0,1.355-1.145,2.5-2.5,2.5h-62.639c-1.355,0-2.5-1.145-2.5-2.5V331.762
			c0-1.355,1.145-2.5,2.5-2.5h10.444v118.5c0,4.142,3.357,7.5,7.5,7.5s7.5-3.358,7.5-7.5v-118.5h10v44.5c0,4.142,3.357,7.5,7.5,7.5
			s7.5-3.358,7.5-7.5v-44.5h12.195c1.355,0,2.5,1.145,2.5,2.5V349c0,4.142,3.357,7.5,7.5,7.5s7.5-3.358,7.5-7.5v-16.246h13.927
			c1.355,0,2.5,1.145,2.5,2.5V397.894z"/>
	</g>
</g>
<g>
</g>
<g>
</g>
<g>
</g>
<g>
</g>
<g>
</g>
<g>
</g>
<g>
</g>
<g>
</g>
<g>
</g>
<g>
</g>
<g>
</g>
<g>
</g>
<g>
</g>
<g>
</g>
<g>
</g>
</svg>
